<svg width="25" height="28" viewBox="0 0 25 28" fill="none" xmlns="http://www.w3.org/2000/svg">
<path d="M10.5733 0.473663C11.108 0.163407 11.7152 0 12.3333 0C12.9515 0 13.5587 0.163407 14.0933 0.473663L14.0947 0.474996L22.9093 5.54166C23.4446 5.85285 23.8886 6.2992 24.197 6.836C24.5054 7.37281 24.6674 7.98123 24.6667 8.60033V18.7377C24.6654 19.3558 24.5025 19.9629 24.1943 20.4987C23.886 21.0345 23.4431 21.4805 22.9093 21.7923L22.9053 21.795L14.0947 26.8603H14.092C13.5575 27.1703 12.9506 27.3336 12.3327 27.3336C11.7148 27.3336 11.1079 27.1703 10.5733 26.8603H10.572L1.76136 21.7937H1.75736C1.22105 21.4834 0.776122 21.0371 0.467558 20.4998C0.158993 19.9625 -0.00228453 19.3533 2.44487e-05 18.7337V8.59766C0.00134002 7.97951 0.164197 7.37243 0.472448 6.83662C0.780699 6.30081 1.22364 5.85486 1.75736 5.543L1.76136 5.54033L10.5733 0.473663Z" fill="white"/>
<path d="M10.5733 0.473663C11.108 0.163407 11.7152 0 12.3333 0C12.9515 0 13.5587 0.163407 14.0933 0.473663L14.0947 0.474996L22.9093 5.54166C23.4446 5.85285 23.8886 6.2992 24.197 6.836C24.5054 7.37281 24.6674 7.98123 24.6667 8.60033V18.7377C24.6654 19.3558 24.5025 19.9629 24.1943 20.4987C23.886 21.0345 23.4431 21.4805 22.9093 21.7923L22.9053 21.795L14.0947 26.8603H14.092C13.5575 27.1703 12.9506 27.3336 12.3327 27.3336C11.7148 27.3336 11.1079 27.1703 10.5733 26.8603H10.572L1.76136 21.7937H1.75736C1.22105 21.4834 0.776122 21.0371 0.467558 20.4998C0.158993 19.9625 -0.00228453 19.3533 2.44487e-05 18.7337V8.59766C0.00134002 7.97951 0.164197 7.37243 0.472448 6.83662C0.780699 6.30081 1.22364 5.85486 1.75736 5.543L1.76136 5.54033L10.5733 0.473663ZM14.7293 8.5939C14.7635 8.46695 14.7723 8.33453 14.7553 8.20418C14.7382 8.07383 14.6957 7.94812 14.6301 7.83421C14.5644 7.7203 14.477 7.62044 14.3728 7.54031C14.2686 7.46019 14.1496 7.40138 14.0227 7.36723C13.8957 7.33309 13.7633 7.32428 13.633 7.34132C13.5026 7.35835 13.3769 7.40089 13.263 7.46651C13.1491 7.53213 13.0492 7.61955 12.9691 7.72376C12.889 7.82798 12.8302 7.94695 12.796 8.0739L9.93868 18.7406C9.86972 18.9968 9.90536 19.2699 10.0378 19.4998C10.1702 19.7297 10.3885 19.8976 10.6447 19.9666C10.9009 20.0355 11.174 19.9999 11.4039 19.8675C11.6338 19.7351 11.8017 19.5168 11.8707 19.2606L14.7293 8.5939ZM16.9173 9.89256C16.8258 9.79432 16.7154 9.71551 16.5927 9.66086C16.4701 9.6062 16.3376 9.57681 16.2034 9.57444C16.0691 9.57207 15.9357 9.59678 15.8112 9.64707C15.6867 9.69736 15.5736 9.77222 15.4786 9.86718C15.3837 9.96214 15.3088 10.0753 15.2585 10.1998C15.2082 10.3243 15.1835 10.4577 15.1859 10.5919C15.1883 10.7262 15.2176 10.8586 15.2723 10.9813C15.327 11.1039 15.4058 11.2143 15.504 11.3059L15.6787 11.4819C16.3813 12.1832 16.8347 12.6406 17.1253 13.0219C17.3987 13.3792 17.432 13.5499 17.432 13.6673C17.432 13.7846 17.3987 13.9553 17.1253 14.3126C16.8347 14.6939 16.3813 15.1512 15.6787 15.8526L15.504 16.0272C15.3218 16.2158 15.2208 16.4683 15.223 16.7305C15.2251 16.9927 15.3302 17.2436 15.5155 17.4291C15.7008 17.6146 15.9516 17.7199 16.2138 17.7223C16.476 17.7247 16.7287 17.624 16.9173 17.4419L17.14 17.2192C17.7827 16.5792 18.3333 16.0272 18.7147 15.5259C19.124 14.9899 19.4307 14.3979 19.4307 13.6673C19.4307 12.9366 19.124 12.3446 18.7147 11.8086C18.3333 11.3072 17.7813 10.7566 17.1413 10.1152L16.9173 9.89256ZM9.16268 9.89256C8.97518 9.7053 8.72101 9.60011 8.45601 9.60011C8.19101 9.60011 7.93684 9.7053 7.74934 9.89256L7.52667 10.1152C6.88534 10.7552 6.33334 11.3072 5.952 11.8086C5.54267 12.3446 5.236 12.9366 5.236 13.6673C5.236 14.3979 5.54267 14.9899 5.952 15.5259C6.33334 16.0272 6.88534 16.5792 7.52534 17.2192L7.74934 17.4419C7.84089 17.5402 7.95129 17.619 8.07396 17.6736C8.19662 17.7283 8.32904 17.7577 8.46331 17.76C8.59758 17.7624 8.73095 17.7377 8.85547 17.6874C8.97999 17.6371 9.0931 17.5623 9.18806 17.4673C9.28302 17.3723 9.35788 17.2592 9.40817 17.1347C9.45847 17.0102 9.48317 16.8768 9.4808 16.7425C9.47843 16.6083 9.44904 16.4759 9.39438 16.3532C9.33972 16.2305 9.26092 16.1201 9.16268 16.0286L8.98801 15.8526C8.28534 15.1512 7.83201 14.6939 7.54134 14.3126C7.26801 13.9553 7.23467 13.7846 7.23467 13.6673C7.23467 13.5499 7.26801 13.3792 7.54134 13.0219C7.83201 12.6406 8.28534 12.1832 8.98801 11.4819L9.16268 11.3072C9.34994 11.1197 9.45513 10.8656 9.45513 10.6006C9.45513 10.3356 9.34994 10.0814 9.16268 9.8939" fill="black"/>
</svg>
